<svg id="my-svg" width="100%" xmlns="http://www.w3.org/2000/svg" xmlns:xlink="http://www.w3.org/1999/xlink" class="classDiagram" style="max-width: 887.102px; background-color: white;" viewBox="0 0 887.1015625 506" role="graphics-document document" aria-roledescription="class"><style>#my-svg{font-family:"trebuchet ms",verdana,arial,sans-serif;font-size:16px;fill:#333;}@keyframes edge-animation-frame{from{stroke-dashoffset:0;}}@keyframes dash{to{stroke-dashoffset:0;}}#my-svg .edge-animation-slow{stroke-dasharray:9,5!important;stroke-dashoffset:900;animation:dash 50s linear infinite;stroke-linecap:round;}#my-svg .edge-animation-fast{stroke-dasharray:9,5!important;stroke-dashoffset:900;animation:dash 20s linear infinite;stroke-linecap:round;}#my-svg .error-icon{fill:#552222;}#my-svg .error-text{fill:#552222;stroke:#552222;}#my-svg .edge-thickness-normal{stroke-width:1px;}#my-svg .edge-thickness-thick{stroke-width:3.5px;}#my-svg .edge-pattern-solid{stroke-dasharray:0;}#my-svg .edge-thickness-invisible{stroke-width:0;fill:none;}#my-svg .edge-pattern-dashed{stroke-dasharray:3;}#my-svg .edge-pattern-dotted{stroke-dasharray:2;}#my-svg .marker{fill:#333333;stroke:#333333;}#my-svg .marker.cross{stroke:#333333;}#my-svg svg{font-family:"trebuchet ms",verdana,arial,sans-serif;font-size:16px;}#my-svg p{margin:0;}#my-svg g.classGroup text{fill:#9370DB;stroke:none;font-family:"trebuchet ms",verdana,arial,sans-serif;font-size:10px;}#my-svg g.classGroup text .title{font-weight:bolder;}#my-svg .cluster-label text{fill:#333;}#my-svg .cluster-label span{color:#333;}#my-svg .cluster-label span p{background-color:transparent;}#my-svg .cluster rect{fill:#ffffde;stroke:#aaaa33;stroke-width:1px;}#my-svg .cluster text{fill:#333;}#my-svg .cluster span{color:#333;}#my-svg .nodeLabel,#my-svg .edgeLabel{color:#131300;}#my-svg .noteLabel .nodeLabel,#my-svg .noteLabel .edgeLabel{color:black;}#my-svg .edgeLabel .label rect{fill:#ECECFF;}#my-svg .label text{fill:#131300;}#my-svg .labelBkg{background:#ECECFF;}#my-svg .edgeLabel .label span{background:#ECECFF;}#my-svg .classTitle{font-weight:bolder;}#my-svg .node rect,#my-svg .node circle,#my-svg .node ellipse,#my-svg .node polygon,#my-svg .node path{fill:#ECECFF;stroke:#9370DB;stroke-width:1;}#my-svg .divider{stroke:#9370DB;stroke-width:1;}#my-svg g.clickable{cursor:pointer;}#my-svg g.classGroup rect{fill:#ECECFF;stroke:#9370DB;}#my-svg g.classGroup line{stroke:#9370DB;stroke-width:1;}#my-svg .classLabel .box{stroke:none;stroke-width:0;fill:#ECECFF;opacity:0.5;}#my-svg .classLabel .label{fill:#9370DB;font-size:10px;}#my-svg .relation{stroke:#333333;stroke-width:1;fill:none;}#my-svg .dashed-line{stroke-dasharray:3;}#my-svg .dotted-line{stroke-dasharray:1 2;}#my-svg [id$="-compositionStart"],#my-svg .composition{fill:#333333!important;stroke:#333333!important;stroke-width:1;}#my-svg [id$="-compositionEnd"],#my-svg .composition{fill:#333333!important;stroke:#333333!important;stroke-width:1;}#my-svg [id$="-dependencyStart"],#my-svg .dependency{fill:#333333!important;stroke:#333333!important;stroke-width:1;}#my-svg [id$="-dependencyEnd"],#my-svg .dependency{fill:#333333!important;stroke:#333333!important;stroke-width:1;}#my-svg [id$="-extensionStart"],#my-svg .extension{fill:transparent!important;stroke:#333333!important;stroke-width:1;}#my-svg [id$="-extensionEnd"],#my-svg .extension{fill:transparent!important;stroke:#333333!important;stroke-width:1;}#my-svg [id$="-aggregationStart"],#my-svg .aggregation{fill:transparent!important;stroke:#333333!important;stroke-width:1;}#my-svg [id$="-aggregationEnd"],#my-svg .aggregation{fill:transparent!important;stroke:#333333!important;stroke-width:1;}#my-svg [id$="-lollipopStart"],#my-svg .lollipop{fill:#ECECFF!important;stroke:#333333!important;stroke-width:1;}#my-svg [id$="-lollipopEnd"],#my-svg .lollipop{fill:#ECECFF!important;stroke:#333333!important;stroke-width:1;}#my-svg .edgeTerminals{font-size:11px;line-height:initial;}#my-svg .classTitleText{text-anchor:middle;font-size:18px;fill:#333;}#my-svg .edgeLabel[data-look="neo"]{background-color:rgba(232,232,232, 0.8);text-align:center;}#my-svg .edgeLabel[data-look="neo"] p{background-color:rgba(232,232,232, 0.8);}#my-svg .edgeLabel[data-look="neo"] rect{opacity:0.5;background-color:rgba(232,232,232, 0.8);fill:rgba(232,232,232, 0.8);}#my-svg .label-icon{display:inline-block;height:1em;overflow:visible;vertical-align:-0.125em;}#my-svg .node .label-icon path{fill:currentColor;stroke:revert;stroke-width:revert;}#my-svg .node .neo-node{stroke:#9370DB;}#my-svg [data-look="neo"].node rect,#my-svg [data-look="neo"].cluster rect,#my-svg [data-look="neo"].node polygon{stroke:#9370DB;filter:drop-shadow(1px 2px 2px rgba(185, 185, 185, 1));}#my-svg [data-look="neo"].swimlane.cluster rect{filter:none;}#my-svg [data-look="neo"].node path{stroke:#9370DB;stroke-width:1px;}#my-svg [data-look="neo"].node .outer-path{filter:drop-shadow(1px 2px 2px rgba(185, 185, 185, 1));}#my-svg [data-look="neo"].node .neo-line path{stroke:#9370DB;filter:none;}#my-svg [data-look="neo"].node circle{stroke:#9370DB;filter:drop-shadow(1px 2px 2px rgba(185, 185, 185, 1));}#my-svg [data-look="neo"].node circle .state-start{fill:#000000;}#my-svg [data-look="neo"].icon-shape .icon{fill:#9370DB;filter:drop-shadow(1px 2px 2px rgba(185, 185, 185, 1));}#my-svg [data-look="neo"].icon-shape .icon-neo path{stroke:#9370DB;filter:drop-shadow(1px 2px 2px rgba(185, 185, 185, 1));}#my-svg :root{--mermaid-font-family:"trebuchet ms",verdana,arial,sans-serif;}</style><g><defs><marker id="my-svg_class-aggregationStart" class="marker aggregation class" refX="18" refY="7" markerWidth="190" markerHeight="240" orient="auto"><path d="M 18,7 L9,13 L1,7 L9,1 Z"/></marker></defs><defs><marker id="my-svg_class-aggregationEnd" class="marker aggregation class" refX="1" refY="7" markerWidth="20" markerHeight="28" orient="auto"><path d="M 18,7 L9,13 L1,7 L9,1 Z"/></marker></defs><defs><marker id="my-svg_class-aggregationStart-margin" class="marker aggregation class" refX="15" refY="7" markerWidth="190" markerHeight="240" orient="auto" markerUnits="userSpaceOnUse"><path d="M 18,7 L9,13 L1,7 L9,1 Z" style="stroke-width: 2;"/></marker></defs><defs><marker id="my-svg_class-aggregationEnd-margin" class="marker aggregation class" refX="1" refY="7" markerWidth="20" markerHeight="28" orient="auto" markerUnits="userSpaceOnUse"><path d="M 18,7 L9,13 L1,7 L9,1 Z" style="stroke-width: 2;"/></marker></defs><defs><marker id="my-svg_class-extensionStart" class="marker extension class" refX="18" refY="7" markerWidth="20" markerHeight="28" orient="auto" markerUnits="userSpaceOnUse"><path d="M 1,7 L18,13 V 1 Z"/></marker></defs><defs><marker id="my-svg_class-extensionEnd" class="marker extension class" refX="1" refY="7" markerWidth="20" markerHeight="28" orient="auto"><path d="M 1,1 V 13 L18,7 Z"/></marker></defs><marker id="my-svg_class-extensionStart-margin" class="marker extension class" refX="18" refY="7" markerWidth="20" markerHeight="28" orient="auto" markerUnits="userSpaceOnUse" viewBox="0 0 20 14"><polygon points="10,7 18,13 18,1" style="stroke-width: 2; stroke-dasharray: 0;"/></marker><defs><marker id="my-svg_class-extensionEnd-margin" class="marker extension class" refX="9" refY="7" markerWidth="20" markerHeight="28" orient="auto" markerUnits="userSpaceOnUse" viewBox="0 0 20 14"><polygon points="10,1 10,13 18,7" style="stroke-width: 2; stroke-dasharray: 0;"/></marker></defs><defs><marker id="my-svg_class-compositionStart" class="marker composition class" refX="18" refY="7" markerWidth="190" markerHeight="240" orient="auto"><path d="M 18,7 L9,13 L1,7 L9,1 Z"/></marker></defs><defs><marker id="my-svg_class-compositionEnd" class="marker composition class" refX="1" refY="7" markerWidth="20" markerHeight="28" orient="auto"><path d="M 18,7 L9,13 L1,7 L9,1 Z"/></marker></defs><defs><marker id="my-svg_class-compositionStart-margin" class="marker composition class" refX="15" refY="7" markerWidth="190" markerHeight="240" orient="auto" markerUnits="userSpaceOnUse"><path viewBox="0 0 15 15" d="M 18,7 L9,13 L1,7 L9,1 Z" style="stroke-width: 0;"/></marker></defs><defs><marker id="my-svg_class-compositionEnd-margin" class="marker composition class" refX="3.5" refY="7" markerWidth="20" markerHeight="28" orient="auto" markerUnits="userSpaceOnUse"><path d="M 18,7 L9,13 L1,7 L9,1 Z" style="stroke-width: 0;"/></marker></defs><defs><marker id="my-svg_class-dependencyStart" class="marker dependency class" refX="6" refY="7" markerWidth="190" markerHeight="240" orient="auto"><path d="M 5,7 L9,13 L1,7 L9,1 Z"/></marker></defs><defs><marker id="my-svg_class-dependencyEnd" class="marker dependency class" refX="13" refY="7" markerWidth="20" markerHeight="28" orient="auto"><path d="M 18,7 L9,13 L14,7 L9,1 Z"/></marker></defs><defs><marker id="my-svg_class-dependencyStart-margin" class="marker dependency class" refX="4" refY="7" markerWidth="190" markerHeight="240" orient="auto" markerUnits="userSpaceOnUse"><path d="M 5,7 L9,13 L1,7 L9,1 Z" style="stroke-width: 0;"/></marker></defs><defs><marker id="my-svg_class-dependencyEnd-margin" class="marker dependency class" refX="16" refY="7" markerWidth="20" markerHeight="28" orient="auto" markerUnits="userSpaceOnUse"><path d="M 18,7 L9,13 L14,7 L9,1 Z" style="stroke-width: 0;"/></marker></defs><defs><marker id="my-svg_class-lollipopStart" class="marker lollipop class" refX="13" refY="7" markerWidth="190" markerHeight="240" orient="auto"><circle fill="transparent" cx="7" cy="7" r="6"/></marker></defs><defs><marker id="my-svg_class-lollipopEnd" class="marker lollipop class" refX="1" refY="7" markerWidth="190" markerHeight="240" orient="auto"><circle fill="transparent" cx="7" cy="7" r="6"/></marker></defs><defs><marker id="my-svg_class-lollipopStart-margin" class="marker lollipop class" refX="13" refY="7" markerWidth="190" markerHeight="240" orient="auto" markerUnits="userSpaceOnUse"><circle fill="transparent" cx="7" cy="7" r="6" stroke-width="2"/></marker></defs><defs><marker id="my-svg_class-lollipopEnd-margin" class="marker lollipop class" refX="1" refY="7" markerWidth="190" markerHeight="240" orient="auto" markerUnits="userSpaceOnUse"><circle fill="transparent" cx="7" cy="7" r="6" stroke-width="2"/></marker></defs><g class="root"><g class="clusters"/><g class="edgePaths"><path d="M83.082,110L82.239,117.167C81.396,124.333,79.71,138.667,78.867,160.5C78.023,182.333,78.023,211.667,78.023,243C78.023,274.333,78.023,307.667,89.614,330.305C101.205,352.944,124.386,364.888,135.976,370.861L147.567,376.833" id="my-svg-id_FastAPI_Depends_get_db_1" class="edge-thickness-normal edge-pattern-solid relation" style=";;;" data-edge="true" data-et="edge" data-id="id_FastAPI_Depends_get_db_1" data-points="W3sieCI6ODMuMDgyMjYxMDI5NDExNzcsInkiOjExMH0seyJ4Ijo3OC4wMjM0Mzc1LCJ5IjoxNTN9LHsieCI6NzguMDIzNDM3NSwieSI6MjQxfSx7IngiOjc4LjAyMzQzNzUsInkiOjM0MX0seyJ4IjoxNTIuOTAwMzkwNjI1LCJ5IjozNzkuNTgwODE0ODQwMTc1NTV9XQ==" data-look="classic" marker-end="url(#my-svg_class-dependencyEnd)"/><path d="M126.402,110L132.951,117.167C139.5,124.333,152.598,138.667,163.728,149.842C174.858,161.016,184.021,169.033,188.602,173.041L193.184,177.049" id="my-svg-id_FastAPI_Depends_get_current_user_2" class="edge-thickness-normal edge-pattern-solid relation" style=";;;" data-edge="true" data-et="edge" data-id="id_FastAPI_Depends_get_current_user_2" data-points="W3sieCI6MTI2LjQwMjQ4MTYxNzY0NzA2LCJ5IjoxMTB9LHsieCI6MTY1LjY5NTMxMjUsInkiOjE1M30seyJ4IjoxOTcuNjk5MzA3NTI4NDA5MSwieSI6MTgxfV0=" data-look="classic" marker-end="url(#my-svg_class-dependencyEnd)"/><path d="M266.279,301L266.279,307.667C266.279,314.333,266.279,327.667,266.279,339.5C266.279,351.333,266.279,361.667,266.279,366.833L266.279,372" id="my-svg-id_get_current_user_get_db_3" class="edge-thickness-normal edge-pattern-solid relation" style=";;;" data-edge="true" data-et="edge" data-id="id_get_current_user_get_db_3" data-points="W3sieCI6MjY2LjI3OTI5Njg3NSwieSI6MzAxfSx7IngiOjI2Ni4yNzkyOTY4NzUsInkiOjM0MX0seyJ4IjoyNjYuMjc5Mjk2ODc1LCJ5IjozNzh9XQ==" data-look="classic" marker-end="url(#my-svg_class-dependencyEnd)"/><path d="M289.191,128L289.191,132.167C289.191,136.333,289.191,144.667,288.228,152.532C287.265,160.398,285.339,167.796,284.376,171.495L283.413,175.194" id="my-svg-id_require_roles_get_current_user_4" class="edge-thickness-normal edge-pattern-solid relation" style=";;;" data-edge="true" data-et="edge" data-id="id_require_roles_get_current_user_4" data-points="W3sieCI6Mjg5LjE5MTQwNjI1LCJ5IjoxMjh9LHsieCI6Mjg5LjE5MTQwNjI1LCJ5IjoxNTN9LHsieCI6MjgxLjkwMTE4OTYzMDY4MTgsInkiOjE4MX1d" data-look="classic" marker-end="url(#my-svg_class-dependencyEnd)"/><path d="M656.49,304L656.49,310.167C656.49,316.333,656.49,328.667,611.322,346.061C566.154,363.456,475.817,385.912,430.649,397.14L385.481,408.368" id="my-svg-id_PersistenceInterceptor_get_db_5" class="edge-thickness-normal edge-pattern-dashed relation" style=";;;" data-edge="true" data-et="edge" data-id="id_PersistenceInterceptor_get_db_5" data-points="W3sieCI6NjU2LjQ5MDIzNDM3NSwieSI6MzA0fSx7IngiOjY1Ni40OTAyMzQzNzUsInkiOjM0MX0seyJ4IjozNzkuNjU4MjAzMTI1LCJ5Ijo0MDkuODE1ODc0ODI3MzE3fV0=" data-look="classic" marker-end="url(#my-svg_class-dependencyEnd)"/></g><g class="edgeLabels"><g class="edgeLabel"><g class="label" data-id="id_FastAPI_Depends_get_db_1" transform="translate(0, 0)"><foreignObject width="0" height="0"><div xmlns="http://www.w3.org/1999/xhtml" class="labelBkg" style="display: table-cell; white-space: nowrap; line-height: 1.5; max-width: 200px; text-align: center;"><span class="edgeLabel"></span></div></foreignObject></g></g><g class="edgeLabel"><g class="label" data-id="id_FastAPI_Depends_get_current_user_2" transform="translate(0, 0)"><foreignObject width="0" height="0"><div xmlns="http://www.w3.org/1999/xhtml" class="labelBkg" style="display: table-cell; white-space: nowrap; line-height: 1.5; max-width: 200px; text-align: center;"><span class="edgeLabel"></span></div></foreignObject></g></g><g class="edgeLabel"><g class="label" data-id="id_get_current_user_get_db_3" transform="translate(0, 0)"><foreignObject width="0" height="0"><div xmlns="http://www.w3.org/1999/xhtml" class="labelBkg" style="display: table-cell; white-space: nowrap; line-height: 1.5; max-width: 200px; text-align: center;"><span class="edgeLabel"></span></div></foreignObject></g></g><g class="edgeLabel"><g class="label" data-id="id_require_roles_get_current_user_4" transform="translate(0, 0)"><foreignObject width="0" height="0"><div xmlns="http://www.w3.org/1999/xhtml" class="labelBkg" style="display: table-cell; white-space: nowrap; line-height: 1.5; max-width: 200px; text-align: center;"><span class="edgeLabel"></span></div></foreignObject></g></g><g class="edgeLabel" transform="translate(656.490234375, 341)"><g class="label" data-id="id_PersistenceInterceptor_get_db_5" transform="translate(-57.8203125, -12)"><foreignObject width="115.640625" height="24"><div xmlns="http://www.w3.org/1999/xhtml" class="labelBkg" style="display: table-cell; white-space: nowrap; line-height: 1.5; max-width: 200px; text-align: center;"><span class="edgeLabel"><p>usado por repos</p></span></div></foreignObject></g></g></g><g class="nodes"><g class="node default" id="my-svg-classId-FastAPI_Depends-0" data-look="classic" transform="translate(88.0234375, 68)"><g class="basic label-container outer-path"><path d="M-80.0234375 -42 L80.0234375 -42 L80.0234375 42 L-80.0234375 42" stroke="none" stroke-width="0" fill="#ECECFF" style=""/><path d="M-80.0234375 -42 C-38.39767250163521 -42, 3.228092496729573 -42, 80.0234375 -42 M-80.0234375 -42 C-24.04918363310761 -42, 31.92507023378478 -42, 80.0234375 -42 M80.0234375 -42 C80.0234375 -19.51321157412913, 80.0234375 2.97357685174174, 80.0234375 42 M80.0234375 -42 C80.0234375 -17.32719600272862, 80.0234375 7.34560799454276, 80.0234375 42 M80.0234375 42 C40.684639676234895 42, 1.345841852469789 42, -80.0234375 42 M80.0234375 42 C24.940612268725026 42, -30.142212962549948 42, -80.0234375 42 M-80.0234375 42 C-80.0234375 15.125177126295139, -80.0234375 -11.749645747409723, -80.0234375 -42 M-80.0234375 42 C-80.0234375 22.68868617391278, -80.0234375 3.3773723478255633, -80.0234375 -42" stroke="#9370DB" stroke-width="1.3" fill="none" stroke-dasharray="0 0" style=""/></g><g class="annotation-group text" transform="translate(0, -18)"/><g class="label-group text" transform="translate(-68.0234375, -18)"><g class="label" style="font-weight: bolder" transform="translate(0,-12)"><foreignObject width="136.046875" height="24"><div xmlns="http://www.w3.org/1999/xhtml" style="display: table-cell; white-space: nowrap; line-height: 1.5; max-width: 166px; text-align: center;"><span class="nodeLabel markdown-node-label" style=""><p>FastAPI_Depends</p></span></div></foreignObject></g></g><g class="members-group text" transform="translate(-68.0234375, 30)"/><g class="methods-group text" transform="translate(-68.0234375, 60)"/><g class="divider" style=""><path d="M-80.0234375 6 C-32.61121245863035 6.000296239617558, 14.801012582739304 6.000592479235117, 80.0234375 6.001 M-80.0234375 6 C-43.39079181801466 6.00022888697878, -6.758146136029325 6.000457773957561, 80.0234375 6.001" stroke="#9370DB" stroke-width="1.3" fill="none" stroke-dasharray="0 0" style=""/></g><g class="divider" style=""><path d="M-80.0234375 24 C-42.52096954859436 24.00023432177574, -5.018501597188717 24.00046864355148, 80.0234375 24.001 M-80.0234375 24 C-35.14592918805541 24.000280402277845, 9.731579123889176 24.00056080455569, 80.0234375 24.001" stroke="#9370DB" stroke-width="1.3" fill="none" stroke-dasharray="0 0" style=""/></g></g><g class="node default" id="my-svg-classId-get_db-1" data-look="classic" transform="translate(266.279296875, 438)"><g class="basic label-container outer-path"><path d="M-113.37890625 -60 L113.37890625 -60 L113.37890625 60 L-113.37890625 60" stroke="none" stroke-width="0" fill="#ECECFF" style=""/><path d="M-113.37890625 -60 C-34.48050537751766 -60, 44.41789549496468 -60, 113.37890625 -60 M-113.37890625 -60 C-39.7356638571555 -60, 33.907578535689 -60, 113.37890625 -60 M113.37890625 -60 C113.37890625 -20.99914032147681, 113.37890625 18.001719357046383, 113.37890625 60 M113.37890625 -60 C113.37890625 -19.653190299455247, 113.37890625 20.693619401089506, 113.37890625 60 M113.37890625 60 C53.23732964828572 60, -6.904246953428554 60, -113.37890625 60 M113.37890625 60 C36.31925432765607 60, -40.74039759468786 60, -113.37890625 60 M-113.37890625 60 C-113.37890625 33.73705248506533, -113.37890625 7.474104970130654, -113.37890625 -60 M-113.37890625 60 C-113.37890625 15.682645841624215, -113.37890625 -28.63470831675157, -113.37890625 -60" stroke="#9370DB" stroke-width="1.3" fill="none" stroke-dasharray="0 0" style=""/></g><g class="annotation-group text" transform="translate(0, -36)"/><g class="label-group text" transform="translate(-26.2265625, -36)"><g class="label" style="font-weight: bolder" transform="translate(0,-12)"><foreignObject width="52.453125" height="24"><div xmlns="http://www.w3.org/1999/xhtml" style="display: table-cell; white-space: nowrap; line-height: 1.5; max-width: 94px; text-align: center;"><span class="nodeLabel markdown-node-label" style=""><p>get_db</p></span></div></foreignObject></g></g><g class="members-group text" transform="translate(-101.37890625, 12)"><g class="label" style="" transform="translate(0,-12)"><foreignObject width="176.53125" height="24"><div xmlns="http://www.w3.org/1999/xhtml" style="display: table-cell; white-space: nowrap; line-height: 1.5; max-width: 251px; text-align: center;"><span class="nodeLabel markdown-node-label" style=""><p>&lt;&gt; AsyncSession + UoW</p></span></div></foreignObject></g></g><g class="methods-group text" transform="translate(-101.37890625, 60)"/><g class="divider" style=""><path d="M-113.37890625 -12 C-37.2780413686134 -11.99966439584135, 38.8228235127732 -11.9993287916827, 113.37890625 -11.999 M-113.37890625 -12 C-49.161746203865036 -11.999716802877316, 15.055413842269928 -11.999433605754632, 113.37890625 -11.999" stroke="#9370DB" stroke-width="1.3" fill="none" stroke-dasharray="0 0" style=""/></g><g class="divider" style=""><path d="M-113.37890625 36 C-46.988533895429484 36.00029278097025, 19.401838459141032 36.00058556194049, 113.37890625 36.001 M-113.37890625 36 C-44.64491245120422 36.00030311632063, 24.08908134759156 36.00060623264125, 113.37890625 36.001" stroke="#9370DB" stroke-width="1.3" fill="none" stroke-dasharray="0 0" style=""/></g></g><g class="node default" id="my-svg-classId-get_current_user-2" data-look="classic" transform="translate(266.279296875, 241)"><g class="basic label-container outer-path"><path d="M-120.34375 -60 L120.34375 -60 L120.34375 60 L-120.34375 60" stroke="none" stroke-width="0" fill="#ECECFF" style=""/><path d="M-120.34375 -60 C-46.4362010121727 -60, 27.471347975654595 -60, 120.34375 -60 M-120.34375 -60 C-29.575100814296718 -60, 61.193548371406564 -60, 120.34375 -60 M120.34375 -60 C120.34375 -33.204688303100525, 120.34375 -6.409376606201057, 120.34375 60 M120.34375 -60 C120.34375 -31.021711433718554, 120.34375 -2.0434228674371084, 120.34375 60 M120.34375 60 C71.50124149133163 60, 22.658732982663267 60, -120.34375 60 M120.34375 60 C32.10269197868689 60, -56.13836604262622 60, -120.34375 60 M-120.34375 60 C-120.34375 17.60230908877824, -120.34375 -24.795381822443517, -120.34375 -60 M-120.34375 60 C-120.34375 14.599742385934562, -120.34375 -30.800515228130877, -120.34375 -60" stroke="#9370DB" stroke-width="1.3" fill="none" stroke-dasharray="0 0" style=""/></g><g class="annotation-group text" transform="translate(0, -36)"/><g class="label-group text" transform="translate(-65.359375, -36)"><g class="label" style="font-weight: bolder" transform="translate(0,-12)"><foreignObject width="130.71875" height="24"><div xmlns="http://www.w3.org/1999/xhtml" style="display: table-cell; white-space: nowrap; line-height: 1.5; max-width: 158px; text-align: center;"><span class="nodeLabel markdown-node-label" style=""><p>get_current_user</p></span></div></foreignObject></g></g><g class="members-group text" transform="translate(-108.34375, 12)"><g class="label" style="" transform="translate(0,-12)"><foreignObject width="151.328125" height="24"><div xmlns="http://www.w3.org/1999/xhtml" style="display: table-cell; white-space: nowrap; line-height: 1.5; max-width: 229px; text-align: center;"><span class="nodeLabel markdown-node-label" style=""><p>&lt;&gt; valida JWT + RLS</p></span></div></foreignObject></g></g><g class="methods-group text" transform="translate(-108.34375, 60)"/><g class="divider" style=""><path d="M-120.34375 -12 C-71.70939294298934 -11.99979793567569, -23.07503588597868 -11.999595871351383, 120.34375 -11.999 M-120.34375 -12 C-37.850576171046754 -11.999657260248958, 44.64259765790649 -11.999314520497917, 120.34375 -11.999" stroke="#9370DB" stroke-width="1.3" fill="none" stroke-dasharray="0 0" style=""/></g><g class="divider" style=""><path d="M-120.34375 36 C-64.35554959801388 36.00023261781522, -8.36734919602776 36.00046523563045, 120.34375 36.001 M-120.34375 36 C-26.852421142006563 36.00038843450058, 66.63890771598687 36.00077686900116, 120.34375 36.001" stroke="#9370DB" stroke-width="1.3" fill="none" stroke-dasharray="0 0" style=""/></g></g><g class="node default" id="my-svg-classId-require_roles-3" data-look="classic" transform="translate(289.19140625, 68)"><g class="basic label-container outer-path"><path d="M-71.14453125 -60 L71.14453125 -60 L71.14453125 60 L-71.14453125 60" stroke="none" stroke-width="0" fill="#ECECFF" style=""/><path d="M-71.14453125 -60 C-31.15657135189133 -60, 8.83138854621734 -60, 71.14453125 -60 M-71.14453125 -60 C-32.56153044174093 -60, 6.021470366518145 -60, 71.14453125 -60 M71.14453125 -60 C71.14453125 -17.845887193807123, 71.14453125 24.308225612385755, 71.14453125 60 M71.14453125 -60 C71.14453125 -32.357631869638425, 71.14453125 -4.715263739276843, 71.14453125 60 M71.14453125 60 C31.235252076461343 60, -8.674027097077314 60, -71.14453125 60 M71.14453125 60 C28.74086112200108 60, -13.662809005997843 60, -71.14453125 60 M-71.14453125 60 C-71.14453125 28.23387314007665, -71.14453125 -3.5322537198467003, -71.14453125 -60 M-71.14453125 60 C-71.14453125 13.233742496908548, -71.14453125 -33.532515006182905, -71.14453125 -60" stroke="#9370DB" stroke-width="1.3" fill="none" stroke-dasharray="0 0" style=""/></g><g class="annotation-group text" transform="translate(0, -36)"/><g class="label-group text" transform="translate(-50.6953125, -36)"><g class="label" style="font-weight: bolder" transform="translate(0,-12)"><foreignObject width="101.390625" height="24"><div xmlns="http://www.w3.org/1999/xhtml" style="display: table-cell; white-space: nowrap; line-height: 1.5; max-width: 134px; text-align: center;"><span class="nodeLabel markdown-node-label" style=""><p>require_roles</p></span></div></foreignObject></g></g><g class="members-group text" transform="translate(-59.14453125, 12)"><g class="label" style="" transform="translate(0,-12)"><foreignObject width="67.59375" height="24"><div xmlns="http://www.w3.org/1999/xhtml" style="display: table-cell; white-space: nowrap; line-height: 1.5; max-width: 153px; text-align: center;"><span class="nodeLabel markdown-node-label" style=""><p>&lt;&gt; RBAC</p></span></div></foreignObject></g></g><g class="methods-group text" transform="translate(-59.14453125, 60)"/><g class="divider" style=""><path d="M-71.14453125 -12 C-17.48006262261147 -11.999622848954905, 36.18440600477706 -11.999245697909812, 71.14453125 -11.999 M-71.14453125 -12 C-41.12870885661942 -11.999789050388934, -11.112886463238837 -11.999578100777867, 71.14453125 -11.999" stroke="#9370DB" stroke-width="1.3" fill="none" stroke-dasharray="0 0" style=""/></g><g class="divider" style=""><path d="M-71.14453125 36 C-32.026311809309874 36.00027492077573, 7.091907631380252 36.00054984155146, 71.14453125 36.001 M-71.14453125 36 C-17.114444122430022 36.00037972059256, 36.915643005139955 36.000759441185124, 71.14453125 36.001" stroke="#9370DB" stroke-width="1.3" fill="none" stroke-dasharray="0 0" style=""/></g></g><g class="node default" id="my-svg-classId-get_diagnosis_client-4" data-look="classic" transform="translate(501.46875, 68)"><g class="basic label-container outer-path"><path d="M-91.1328125 -54 L91.1328125 -54 L91.1328125 54 L-91.1328125 54" stroke="none" stroke-width="0" fill="#ECECFF" style=""/><path d="M-91.1328125 -54 C-32.685365773432 -54, 25.762080953136007 -54, 91.1328125 -54 M-91.1328125 -54 C-40.74986898800502 -54, 9.633074523989961 -54, 91.1328125 -54 M91.1328125 -54 C91.1328125 -16.757087223856914, 91.1328125 20.485825552286173, 91.1328125 54 M91.1328125 -54 C91.1328125 -13.869179313295312, 91.1328125 26.261641373409375, 91.1328125 54 M91.1328125 54 C47.69628326778781 54, 4.259754035575625 54, -91.1328125 54 M91.1328125 54 C50.39889950236778 54, 9.664986504735566 54, -91.1328125 54 M-91.1328125 54 C-91.1328125 31.30260645106932, -91.1328125 8.60521290213864, -91.1328125 -54 M-91.1328125 54 C-91.1328125 24.724968261272753, -91.1328125 -4.5500634774544935, -91.1328125 -54" stroke="#9370DB" stroke-width="1.3" fill="none" stroke-dasharray="0 0" style=""/></g><g class="annotation-group text" transform="translate(-77.8359375, -30)"><g class="label" style="" transform="translate(0,-12)"><foreignObject width="155.671875" height="24"><div xmlns="http://www.w3.org/1999/xhtml" style="display: table-cell; white-space: nowrap; line-height: 1.5; max-width: 191px; text-align: center;"><span class="nodeLabel markdown-node-label" style=""><p>«lru_cache singleton»</p></span></div></foreignObject></g></g><g class="label-group text" transform="translate(-79.1328125, -6)"><g class="label" style="font-weight: bolder" transform="translate(0,-12)"><foreignObject width="158.265625" height="24"><div xmlns="http://www.w3.org/1999/xhtml" style="display: table-cell; white-space: nowrap; line-height: 1.5; max-width: 182px; text-align: center;"><span class="nodeLabel markdown-node-label" style=""><p>get_diagnosis_client</p></span></div></foreignObject></g></g><g class="members-group text" transform="translate(-79.1328125, 42)"/><g class="methods-group text" transform="translate(-79.1328125, 72)"/><g class="divider" style=""><path d="M-91.1328125 18 C-37.40018942167674 18.000294803932878, 16.332433656646515 18.000589607865756, 91.1328125 18.001 M-91.1328125 18 C-33.32387364285545 18.000317168631536, 24.485065214289094 18.000634337263072, 91.1328125 18.001" stroke="#9370DB" stroke-width="1.3" fill="none" stroke-dasharray="0 0" style=""/></g><g class="divider" style=""><path d="M-91.1328125 36 C-21.96131318135518 36.00037950929759, 47.21018613728964 36.00075901859518, 91.1328125 36.001 M-91.1328125 36 C-51.33365535300011 36.00021835799892, -11.534498206000222 36.00043671599784, 91.1328125 36.001" stroke="#9370DB" stroke-width="1.3" fill="none" stroke-dasharray="0 0" style=""/></g></g><g class="node default" id="my-svg-classId-get_recommendation_client-5" data-look="classic" transform="translate(760.8515625, 68)"><g class="basic label-container outer-path"><path d="M-118.25 -54 L118.25 -54 L118.25 54 L-118.25 54" stroke="none" stroke-width="0" fill="#ECECFF" style=""/><path d="M-118.25 -54 C-27.863839917591136 -54, 62.52232016481773 -54, 118.25 -54 M-118.25 -54 C-47.57046896361257 -54, 23.10906207277486 -54, 118.25 -54 M118.25 -54 C118.25 -21.190140531624223, 118.25 11.619718936751553, 118.25 54 M118.25 -54 C118.25 -14.011337381867591, 118.25 25.977325236264818, 118.25 54 M118.25 54 C61.91081001953272 54, 5.5716200390654365 54, -118.25 54 M118.25 54 C54.313455018690625 54, -9.62308996261875 54, -118.25 54 M-118.25 54 C-118.25 12.178025785389309, -118.25 -29.643948429221382, -118.25 -54 M-118.25 54 C-118.25 20.93382204699582, -118.25 -12.132355906008357, -118.25 -54" stroke="#9370DB" stroke-width="1.3" fill="none" stroke-dasharray="0 0" style=""/></g><g class="annotation-group text" transform="translate(-77.8359375, -30)"><g class="label" style="" transform="translate(0,-12)"><foreignObject width="155.671875" height="24"><div xmlns="http://www.w3.org/1999/xhtml" style="display: table-cell; white-space: nowrap; line-height: 1.5; max-width: 191px; text-align: center;"><span class="nodeLabel markdown-node-label" style=""><p>«lru_cache singleton»</p></span></div></foreignObject></g></g><g class="label-group text" transform="translate(-106.25, -6)"><g class="label" style="font-weight: bolder" transform="translate(0,-12)"><foreignObject width="212.5" height="24"><div xmlns="http://www.w3.org/1999/xhtml" style="display: table-cell; white-space: nowrap; line-height: 1.5; max-width: 229px; text-align: center;"><span class="nodeLabel markdown-node-label" style=""><p>get_recommendation_client</p></span></div></foreignObject></g></g><g class="members-group text" transform="translate(-106.25, 42)"/><g class="methods-group text" transform="translate(-106.25, 72)"/><g class="divider" style=""><path d="M-118.25 18 C-37.979717199422325 18.0003394092296, 42.29056560115535 18.000678818459203, 118.25 18.001 M-118.25 18 C-47.05292289428685 18.000301044723493, 24.144154211426297 18.000602089446982, 118.25 18.001" stroke="#9370DB" stroke-width="1.3" fill="none" stroke-dasharray="0 0" style=""/></g><g class="divider" style=""><path d="M-118.25 36 C-45.54913330788517 36.00030740324183, 27.151733384229658 36.000614806483654, 118.25 36.001 M-118.25 36 C-66.60821752978819 36.00021835848825, -14.966435059576398 36.000436716976495, 118.25 36.001" stroke="#9370DB" stroke-width="1.3" fill="none" stroke-dasharray="0 0" style=""/></g></g><g class="node default" id="my-svg-classId-PersistenceInterceptor-6" data-look="classic" transform="translate(656.490234375, 241)"><g class="basic label-container outer-path"><path d="M-219.8671875 -63 L219.8671875 -63 L219.8671875 63 L-219.8671875 63" stroke="none" stroke-width="0" fill="#ECECFF" style=""/><path d="M-219.8671875 -63 C-75.34223052339505 -63, 69.18272645320991 -63, 219.8671875 -63 M-219.8671875 -63 C-103.66307162986647 -63, 12.54104424026707 -63, 219.8671875 -63 M219.8671875 -63 C219.8671875 -35.830751813664975, 219.8671875 -8.661503627329942, 219.8671875 63 M219.8671875 -63 C219.8671875 -35.960089541871696, 219.8671875 -8.920179083743399, 219.8671875 63 M219.8671875 63 C81.72580343606919 63, -56.41558062786163 63, -219.8671875 63 M219.8671875 63 C117.52773309206711 63, 15.188278684134218 63, -219.8671875 63 M-219.8671875 63 C-219.8671875 26.27776584312869, -219.8671875 -10.444468313742618, -219.8671875 -63 M-219.8671875 63 C-219.8671875 22.468056077336755, -219.8671875 -18.06388784532649, -219.8671875 -63" stroke="#9370DB" stroke-width="1.3" fill="none" stroke-dasharray="0 0" style=""/></g><g class="annotation-group text" transform="translate(0, -39)"/><g class="label-group text" transform="translate(-86.703125, -39)"><g class="label" style="font-weight: bolder" transform="translate(0,-12)"><foreignObject width="173.40625" height="24"><div xmlns="http://www.w3.org/1999/xhtml" style="display: table-cell; white-space: nowrap; line-height: 1.5; max-width: 193px; text-align: center;"><span class="nodeLabel markdown-node-label" style=""><p>PersistenceInterceptor</p></span></div></foreignObject></g></g><g class="members-group text" transform="translate(-207.8671875, 9)"/><g class="methods-group text" transform="translate(-207.8671875, 39)"><g class="label" style="" transform="translate(0,-12)"><foreignObject width="329.03125" height="24"><div xmlns="http://www.w3.org/1999/xhtml" style="display: table-cell; white-space: nowrap; line-height: 1.5; max-width: 359px; text-align: center;"><span class="nodeLabel markdown-node-label" style=""><p>+prepare_for_write() +materialize_from_read()</p></span></div></foreignObject></g></g><g class="divider" style=""><path d="M-219.8671875 -15 C-97.21890446057297 -14.999721085523415, 25.429378578854056 -14.99944217104683, 219.8671875 -14.999 M-219.8671875 -15 C-54.95650538759679 -14.999624976596127, 109.95417672480642 -14.999249953192255, 219.8671875 -14.999" stroke="#9370DB" stroke-width="1.3" fill="none" stroke-dasharray="0 0" style=""/></g><g class="divider" style=""><path d="M-219.8671875 9 C-53.2461172294868 9.000378912997808, 113.3749530410264 9.000757825995615, 219.8671875 9.001 M-219.8671875 9 C-67.35645201137905 9.000346824683625, 85.1542834772419 9.00069364936725, 219.8671875 9.001" stroke="#9370DB" stroke-width="1.3" fill="none" stroke-dasharray="0 0" style=""/></g></g></g></g></g><defs><filter id="my-svg-drop-shadow" height="130%" width="130%"><feDropShadow dx="4" dy="4" stdDeviation="0" flood-opacity="0.06" flood-color="#000000"/></filter></defs><defs><filter id="my-svg-drop-shadow-small" height="150%" width="150%"><feDropShadow dx="2" dy="2" stdDeviation="0" flood-opacity="0.06" flood-color="#000000"/></filter></defs></svg>