<svg id="my-svg" width="100%" xmlns="http://www.w3.org/2000/svg" xmlns:xlink="http://www.w3.org/1999/xlink" class="classDiagram" style="max-width: 1950.7px; background-color: white;" viewBox="0 0 1950.697265625 590" role="graphics-document document" aria-roledescription="class"><style>#my-svg{font-family:"trebuchet ms",verdana,arial,sans-serif;font-size:16px;fill:#333;}@keyframes edge-animation-frame{from{stroke-dashoffset:0;}}@keyframes dash{to{stroke-dashoffset:0;}}#my-svg .edge-animation-slow{stroke-dasharray:9,5!important;stroke-dashoffset:900;animation:dash 50s linear infinite;stroke-linecap:round;}#my-svg .edge-animation-fast{stroke-dasharray:9,5!important;stroke-dashoffset:900;animation:dash 20s linear infinite;stroke-linecap:round;}#my-svg .error-icon{fill:#552222;}#my-svg .error-text{fill:#552222;stroke:#552222;}#my-svg .edge-thickness-normal{stroke-width:1px;}#my-svg .edge-thickness-thick{stroke-width:3.5px;}#my-svg .edge-pattern-solid{stroke-dasharray:0;}#my-svg .edge-thickness-invisible{stroke-width:0;fill:none;}#my-svg .edge-pattern-dashed{stroke-dasharray:3;}#my-svg .edge-pattern-dotted{stroke-dasharray:2;}#my-svg .marker{fill:#333333;stroke:#333333;}#my-svg .marker.cross{stroke:#333333;}#my-svg svg{font-family:"trebuchet ms",verdana,arial,sans-serif;font-size:16px;}#my-svg p{margin:0;}#my-svg g.classGroup text{fill:#9370DB;stroke:none;font-family:"trebuchet ms",verdana,arial,sans-serif;font-size:10px;}#my-svg g.classGroup text .title{font-weight:bolder;}#my-svg .cluster-label text{fill:#333;}#my-svg .cluster-label span{color:#333;}#my-svg .cluster-label span p{background-color:transparent;}#my-svg .cluster rect{fill:#ffffde;stroke:#aaaa33;stroke-width:1px;}#my-svg .cluster text{fill:#333;}#my-svg .cluster span{color:#333;}#my-svg .nodeLabel,#my-svg .edgeLabel{color:#131300;}#my-svg .noteLabel .nodeLabel,#my-svg .noteLabel .edgeLabel{color:black;}#my-svg .edgeLabel .label rect{fill:#ECECFF;}#my-svg .label text{fill:#131300;}#my-svg .labelBkg{background:#ECECFF;}#my-svg .edgeLabel .label span{background:#ECECFF;}#my-svg .classTitle{font-weight:bolder;}#my-svg .node rect,#my-svg .node circle,#my-svg .node ellipse,#my-svg .node polygon,#my-svg .node path{fill:#ECECFF;stroke:#9370DB;stroke-width:1;}#my-svg .divider{stroke:#9370DB;stroke-width:1;}#my-svg g.clickable{cursor:pointer;}#my-svg g.classGroup rect{fill:#ECECFF;stroke:#9370DB;}#my-svg g.classGroup line{stroke:#9370DB;stroke-width:1;}#my-svg .classLabel .box{stroke:none;stroke-width:0;fill:#ECECFF;opacity:0.5;}#my-svg .classLabel .label{fill:#9370DB;font-size:10px;}#my-svg .relation{stroke:#333333;stroke-width:1;fill:none;}#my-svg .dashed-line{stroke-dasharray:3;}#my-svg .dotted-line{stroke-dasharray:1 2;}#my-svg [id$="-compositionStart"],#my-svg .composition{fill:#333333!important;stroke:#333333!important;stroke-width:1;}#my-svg [id$="-compositionEnd"],#my-svg .composition{fill:#333333!important;stroke:#333333!important;stroke-width:1;}#my-svg [id$="-dependencyStart"],#my-svg .dependency{fill:#333333!important;stroke:#333333!important;stroke-width:1;}#my-svg [id$="-dependencyEnd"],#my-svg .dependency{fill:#333333!important;stroke:#333333!important;stroke-width:1;}#my-svg [id$="-extensionStart"],#my-svg .extension{fill:transparent!important;stroke:#333333!important;stroke-width:1;}#my-svg [id$="-extensionEnd"],#my-svg .extension{fill:transparent!important;stroke:#333333!important;stroke-width:1;}#my-svg [id$="-aggregationStart"],#my-svg .aggregation{fill:transparent!important;stroke:#333333!important;stroke-width:1;}#my-svg [id$="-aggregationEnd"],#my-svg .aggregation{fill:transparent!important;stroke:#333333!important;stroke-width:1;}#my-svg [id$="-lollipopStart"],#my-svg .lollipop{fill:#ECECFF!important;stroke:#333333!important;stroke-width:1;}#my-svg [id$="-lollipopEnd"],#my-svg .lollipop{fill:#ECECFF!important;stroke:#333333!important;stroke-width:1;}#my-svg .edgeTerminals{font-size:11px;line-height:initial;}#my-svg .classTitleText{text-anchor:middle;font-size:18px;fill:#333;}#my-svg .edgeLabel[data-look="neo"]{background-color:rgba(232,232,232, 0.8);text-align:center;}#my-svg .edgeLabel[data-look="neo"] p{background-color:rgba(232,232,232, 0.8);}#my-svg .edgeLabel[data-look="neo"] rect{opacity:0.5;background-color:rgba(232,232,232, 0.8);fill:rgba(232,232,232, 0.8);}#my-svg .label-icon{display:inline-block;height:1em;overflow:visible;vertical-align:-0.125em;}#my-svg .node .label-icon path{fill:currentColor;stroke:revert;stroke-width:revert;}#my-svg .node .neo-node{stroke:#9370DB;}#my-svg [data-look="neo"].node rect,#my-svg [data-look="neo"].cluster rect,#my-svg [data-look="neo"].node polygon{stroke:#9370DB;filter:drop-shadow(1px 2px 2px rgba(185, 185, 185, 1));}#my-svg [data-look="neo"].swimlane.cluster rect{filter:none;}#my-svg [data-look="neo"].node path{stroke:#9370DB;stroke-width:1px;}#my-svg [data-look="neo"].node .outer-path{filter:drop-shadow(1px 2px 2px rgba(185, 185, 185, 1));}#my-svg [data-look="neo"].node .neo-line path{stroke:#9370DB;filter:none;}#my-svg [data-look="neo"].node circle{stroke:#9370DB;filter:drop-shadow(1px 2px 2px rgba(185, 185, 185, 1));}#my-svg [data-look="neo"].node circle .state-start{fill:#000000;}#my-svg [data-look="neo"].icon-shape .icon{fill:#9370DB;filter:drop-shadow(1px 2px 2px rgba(185, 185, 185, 1));}#my-svg [data-look="neo"].icon-shape .icon-neo path{stroke:#9370DB;filter:drop-shadow(1px 2px 2px rgba(185, 185, 185, 1));}#my-svg :root{--mermaid-font-family:"trebuchet ms",verdana,arial,sans-serif;}</style><g><defs><marker id="my-svg_class-aggregationStart" class="marker aggregation class" refX="18" refY="7" markerWidth="190" markerHeight="240" orient="auto"><path d="M 18,7 L9,13 L1,7 L9,1 Z"/></marker></defs><defs><marker id="my-svg_class-aggregationEnd" class="marker aggregation class" refX="1" refY="7" markerWidth="20" markerHeight="28" orient="auto"><path d="M 18,7 L9,13 L1,7 L9,1 Z"/></marker></defs><defs><marker id="my-svg_class-aggregationStart-margin" class="marker aggregation class" refX="15" refY="7" markerWidth="190" markerHeight="240" orient="auto" markerUnits="userSpaceOnUse"><path d="M 18,7 L9,13 L1,7 L9,1 Z" style="stroke-width: 2;"/></marker></defs><defs><marker id="my-svg_class-aggregationEnd-margin" class="marker aggregation class" refX="1" refY="7" markerWidth="20" markerHeight="28" orient="auto" markerUnits="userSpaceOnUse"><path d="M 18,7 L9,13 L1,7 L9,1 Z" style="stroke-width: 2;"/></marker></defs><defs><marker id="my-svg_class-extensionStart" class="marker extension class" refX="18" refY="7" markerWidth="20" markerHeight="28" orient="auto" markerUnits="userSpaceOnUse"><path d="M 1,7 L18,13 V 1 Z"/></marker></defs><defs><marker id="my-svg_class-extensionEnd" class="marker extension class" refX="1" refY="7" markerWidth="20" markerHeight="28" orient="auto"><path d="M 1,1 V 13 L18,7 Z"/></marker></defs><marker id="my-svg_class-extensionStart-margin" class="marker extension class" refX="18" refY="7" markerWidth="20" markerHeight="28" orient="auto" markerUnits="userSpaceOnUse" viewBox="0 0 20 14"><polygon points="10,7 18,13 18,1" style="stroke-width: 2; stroke-dasharray: 0;"/></marker><defs><marker id="my-svg_class-extensionEnd-margin" class="marker extension class" refX="9" refY="7" markerWidth="20" markerHeight="28" orient="auto" markerUnits="userSpaceOnUse" viewBox="0 0 20 14"><polygon points="10,1 10,13 18,7" style="stroke-width: 2; stroke-dasharray: 0;"/></marker></defs><defs><marker id="my-svg_class-compositionStart" class="marker composition class" refX="18" refY="7" markerWidth="190" markerHeight="240" orient="auto"><path d="M 18,7 L9,13 L1,7 L9,1 Z"/></marker></defs><defs><marker id="my-svg_class-compositionEnd" class="marker composition class" refX="1" refY="7" markerWidth="20" markerHeight="28" orient="auto"><path d="M 18,7 L9,13 L1,7 L9,1 Z"/></marker></defs><defs><marker id="my-svg_class-compositionStart-margin" class="marker composition class" refX="15" refY="7" markerWidth="190" markerHeight="240" orient="auto" markerUnits="userSpaceOnUse"><path viewBox="0 0 15 15" d="M 18,7 L9,13 L1,7 L9,1 Z" style="stroke-width: 0;"/></marker></defs><defs><marker id="my-svg_class-compositionEnd-margin" class="marker composition class" refX="3.5" refY="7" markerWidth="20" markerHeight="28" orient="auto" markerUnits="userSpaceOnUse"><path d="M 18,7 L9,13 L1,7 L9,1 Z" style="stroke-width: 0;"/></marker></defs><defs><marker id="my-svg_class-dependencyStart" class="marker dependency class" refX="6" refY="7" markerWidth="190" markerHeight="240" orient="auto"><path d="M 5,7 L9,13 L1,7 L9,1 Z"/></marker></defs><defs><marker id="my-svg_class-dependencyEnd" class="marker dependency class" refX="13" refY="7" markerWidth="20" markerHeight="28" orient="auto"><path d="M 18,7 L9,13 L14,7 L9,1 Z"/></marker></defs><defs><marker id="my-svg_class-dependencyStart-margin" class="marker dependency class" refX="4" refY="7" markerWidth="190" markerHeight="240" orient="auto" markerUnits="userSpaceOnUse"><path d="M 5,7 L9,13 L1,7 L9,1 Z" style="stroke-width: 0;"/></marker></defs><defs><marker id="my-svg_class-dependencyEnd-margin" class="marker dependency class" refX="16" refY="7" markerWidth="20" markerHeight="28" orient="auto" markerUnits="userSpaceOnUse"><path d="M 18,7 L9,13 L14,7 L9,1 Z" style="stroke-width: 0;"/></marker></defs><defs><marker id="my-svg_class-lollipopStart" class="marker lollipop class" refX="13" refY="7" markerWidth="190" markerHeight="240" orient="auto"><circle fill="transparent" cx="7" cy="7" r="6"/></marker></defs><defs><marker id="my-svg_class-lollipopEnd" class="marker lollipop class" refX="1" refY="7" markerWidth="190" markerHeight="240" orient="auto"><circle fill="transparent" cx="7" cy="7" r="6"/></marker></defs><defs><marker id="my-svg_class-lollipopStart-margin" class="marker lollipop class" refX="13" refY="7" markerWidth="190" markerHeight="240" orient="auto" markerUnits="userSpaceOnUse"><circle fill="transparent" cx="7" cy="7" r="6" stroke-width="2"/></marker></defs><defs><marker id="my-svg_class-lollipopEnd-margin" class="marker lollipop class" refX="1" refY="7" markerWidth="190" markerHeight="240" orient="auto" markerUnits="userSpaceOnUse"><circle fill="transparent" cx="7" cy="7" r="6" stroke-width="2"/></marker></defs><g class="root"><g class="clusters"/><g class="edgePaths"><path d="M567.359,135.396L532.159,147.33C496.958,159.264,426.556,183.132,391.355,198.233C356.154,213.333,356.154,219.667,356.154,222.833L356.154,226" id="my-svg-id_ScreeningRouter_SubmitAnswersUseCase_1" class="edge-thickness-normal edge-pattern-solid relation" style=";;;" data-edge="true" data-et="edge" data-id="id_ScreeningRouter_SubmitAnswersUseCase_1" data-points="W3sieCI6NTY3LjM1OTM3NSwieSI6MTM1LjM5NTgzMDc0Njc2NDU3fSx7IngiOjM1Ni4xNTQyOTY4NzUsInkiOjIwN30seyJ4IjozNTYuMTU0Mjk2ODc1LCJ5IjoyMzJ9XQ==" data-look="classic" marker-end="url(#my-svg_class-dependencyEnd)"/><path d="M805.664,120.127L874.324,134.605C942.984,149.084,1080.305,178.042,1148.965,195.688C1217.625,213.333,1217.625,219.667,1217.625,222.833L1217.625,226" id="my-svg-id_ScreeningRouter_GetResultUseCase_2" class="edge-thickness-normal edge-pattern-solid relation" style=";;;" data-edge="true" data-et="edge" data-id="id_ScreeningRouter_GetResultUseCase_2" data-points="W3sieCI6ODA1LjY2NDA2MjUsInkiOjEyMC4xMjY1ODQwNDczNjUxM30seyJ4IjoxMjE3LjYyNSwieSI6MjA3fSx7IngiOjEyMTcuNjI1LCJ5IjoyMzJ9XQ==" data-look="classic" marker-end="url(#my-svg_class-dependencyEnd)"/><path d="M205.272,358L195.293,362.167C185.314,366.333,165.356,374.667,155.66,382.004C145.965,389.341,146.531,395.683,146.814,398.853L147.097,402.024" id="my-svg-id_SubmitAnswersUseCase_PgSessionRepository_3" class="edge-thickness-normal edge-pattern-solid relation" style=";;;" data-edge="true" data-et="edge" data-id="id_SubmitAnswersUseCase_PgSessionRepository_3" data-points="W3sieCI6MjA1LjI3MjI2MTE4NjA3OTUzLCJ5IjozNTh9LHsieCI6MTQ1LjM5ODQzNzUsInkiOjM4M30seyJ4IjoxNDcuNjMwNTgwMzU3MTQyODYsInkiOjQwOH1d" data-look="classic" marker-end="url(#my-svg_class-dependencyEnd)"/><path d="M501.467,358L511.078,362.167C520.688,366.333,539.91,374.667,549.52,386C559.131,397.333,559.131,411.667,559.131,418.833L559.131,426" id="my-svg-id_SubmitAnswersUseCase_SpacyNlpService_4" class="edge-thickness-normal edge-pattern-solid relation" style=";;;" data-edge="true" data-et="edge" data-id="id_SubmitAnswersUseCase_SpacyNlpService_4" data-points="W3sieCI6NTAxLjQ2NzA2MzIxMDIyNzI1LCJ5IjozNTh9LHsieCI6NTU5LjEzMDg1OTM3NSwieSI6MzgzfSx7IngiOjU1OS4xMzA4NTkzNzUsInkiOjQzMn1d" data-look="classic" marker-end="url(#my-svg_class-dependencyEnd)"/><path d="M1057.98,311.121L939.343,323.101C820.705,335.08,583.43,359.04,458.428,374.757C333.427,390.473,320.699,397.946,314.335,401.682L307.971,405.419" id="my-svg-id_GetResultUseCase_PgSessionRepository_5" class="edge-thickness-normal edge-pattern-solid relation" style=";;;" data-edge="true" data-et="edge" data-id="id_GetResultUseCase_PgSessionRepository_5" data-points="W3sieCI6MTA1Ny45ODA0Njg3NSwieSI6MzExLjEyMDcwMTEzMTU3MzF9LHsieCI6MzQ2LjE1NDI5Njg3NSwieSI6MzgzfSx7IngiOjMwMi43OTY4NzUsInkiOjQwOC40NTY3ODY4MzY5MDV9XQ==" data-look="classic" marker-end="url(#my-svg_class-dependencyEnd)"/><path d="M1057.98,345.802L1038.498,352.001C1019.015,358.201,980.049,370.601,960.567,379.967C941.084,389.333,941.084,395.667,941.084,398.833L941.084,402" id="my-svg-id_GetResultUseCase_PgResultRepository_6" class="edge-thickness-normal edge-pattern-solid relation" style=";;;" data-edge="true" data-et="edge" data-id="id_GetResultUseCase_PgResultRepository_6" data-points="W3sieCI6MTA1Ny45ODA0Njg3NSwieSI6MzQ1LjgwMTU3MzU2ODU2ODJ9LHsieCI6OTQxLjA4Mzk4NDM3NSwieSI6MzgzfSx7IngiOjk0MS4wODM5ODQzNzUsInkiOjQwOH1d" data-look="classic" marker-end="url(#my-svg_class-dependencyEnd)"/><path d="M1219.215,358L1219.32,362.167C1219.425,366.333,1219.635,374.667,1219.741,386C1219.846,397.333,1219.846,411.667,1219.846,418.833L1219.846,426" id="my-svg-id_GetResultUseCase_DiagnosisServiceClient_7" class="edge-thickness-normal edge-pattern-solid relation" style=";;;" data-edge="true" data-et="edge" data-id="id_GetResultUseCase_DiagnosisServiceClient_7" data-points="W3sieCI6MTIxOS4yMTQ4MjE1NTUzOTc3LCJ5IjozNTh9LHsieCI6MTIxOS44NDU3MDMxMjUsInkiOjM4M30seyJ4IjoxMjE5Ljg0NTcwMzEyNSwieSI6NDMyfV0=" data-look="classic" marker-end="url(#my-svg_class-dependencyEnd)"/><path d="M1377.27,336.58L1406.974,344.317C1436.678,352.054,1496.086,367.527,1525.79,382.43C1555.494,397.333,1555.494,411.667,1555.494,418.833L1555.494,426" id="my-svg-id_GetResultUseCase_RecommendationServiceClient_8" class="edge-thickness-normal edge-pattern-solid relation" style=";;;" data-edge="true" data-et="edge" data-id="id_GetResultUseCase_RecommendationServiceClient_8" data-points="W3sieCI6MTM3Ny4yNjk1MzEyNSwieSI6MzM2LjU4MDM1NDgyMDI0ODY2fSx7IngiOjE1NTUuNDk0MTQwNjI1LCJ5IjozODN9LHsieCI6MTU1NS40OTQxNDA2MjUsInkiOjQzMn1d" data-look="classic" marker-end="url(#my-svg_class-dependencyEnd)"/><path d="M1377.27,316.652L1458.801,327.71C1540.333,338.768,1703.396,360.884,1784.927,379.109C1866.459,397.333,1866.459,411.667,1866.459,418.833L1866.459,426" id="my-svg-id_GetResultUseCase_RiskCalculator_9" class="edge-thickness-normal edge-pattern-solid relation" style=";;;" data-edge="true" data-et="edge" data-id="id_GetResultUseCase_RiskCalculator_9" data-points="W3sieCI6MTM3Ny4yNjk1MzEyNSwieSI6MzE2LjY1MjI1NDc5NjAxMzI3fSx7IngiOjE4NjYuNDU4OTg0Mzc1LCJ5IjozODN9LHsieCI6MTg2Ni40NTg5ODQzNzUsInkiOjQzMn1d" data-look="classic" marker-end="url(#my-svg_class-dependencyEnd)"/></g><g class="edgeLabels"><g class="edgeLabel"><g class="label" data-id="id_ScreeningRouter_SubmitAnswersUseCase_1" transform="translate(0, 0)"><foreignObject width="0" height="0"><div xmlns="http://www.w3.org/1999/xhtml" class="labelBkg" style="display: table-cell; white-space: nowrap; line-height: 1.5; max-width: 200px; text-align: center;"><span class="edgeLabel"></span></div></foreignObject></g></g><g class="edgeLabel"><g class="label" data-id="id_ScreeningRouter_GetResultUseCase_2" transform="translate(0, 0)"><foreignObject width="0" height="0"><div xmlns="http://www.w3.org/1999/xhtml" class="labelBkg" style="display: table-cell; white-space: nowrap; line-height: 1.5; max-width: 200px; text-align: center;"><span class="edgeLabel"></span></div></foreignObject></g></g><g class="edgeLabel"><g class="label" data-id="id_SubmitAnswersUseCase_PgSessionRepository_3" transform="translate(0, 0)"><foreignObject width="0" height="0"><div xmlns="http://www.w3.org/1999/xhtml" class="labelBkg" style="display: table-cell; white-space: nowrap; line-height: 1.5; max-width: 200px; text-align: center;"><span class="edgeLabel"></span></div></foreignObject></g></g><g class="edgeLabel"><g class="label" data-id="id_SubmitAnswersUseCase_SpacyNlpService_4" transform="translate(0, 0)"><foreignObject width="0" height="0"><div xmlns="http://www.w3.org/1999/xhtml" class="labelBkg" style="display: table-cell; white-space: nowrap; line-height: 1.5; max-width: 200px; text-align: center;"><span class="edgeLabel"></span></div></foreignObject></g></g><g class="edgeLabel"><g class="label" data-id="id_GetResultUseCase_PgSessionRepository_5" transform="translate(0, 0)"><foreignObject width="0" height="0"><div xmlns="http://www.w3.org/1999/xhtml" class="labelBkg" style="display: table-cell; white-space: nowrap; line-height: 1.5; max-width: 200px; text-align: center;"><span class="edgeLabel"></span></div></foreignObject></g></g><g class="edgeLabel"><g class="label" data-id="id_GetResultUseCase_PgResultRepository_6" transform="translate(0, 0)"><foreignObject width="0" height="0"><div xmlns="http://www.w3.org/1999/xhtml" class="labelBkg" style="display: table-cell; white-space: nowrap; line-height: 1.5; max-width: 200px; text-align: center;"><span class="edgeLabel"></span></div></foreignObject></g></g><g class="edgeLabel"><g class="label" data-id="id_GetResultUseCase_DiagnosisServiceClient_7" transform="translate(0, 0)"><foreignObject width="0" height="0"><div xmlns="http://www.w3.org/1999/xhtml" class="labelBkg" style="display: table-cell; white-space: nowrap; line-height: 1.5; max-width: 200px; text-align: center;"><span class="edgeLabel"></span></div></foreignObject></g></g><g class="edgeLabel"><g class="label" data-id="id_GetResultUseCase_RecommendationServiceClient_8" transform="translate(0, 0)"><foreignObject width="0" height="0"><div xmlns="http://www.w3.org/1999/xhtml" class="labelBkg" style="display: table-cell; white-space: nowrap; line-height: 1.5; max-width: 200px; text-align: center;"><span class="edgeLabel"></span></div></foreignObject></g></g><g class="edgeLabel"><g class="label" data-id="id_GetResultUseCase_RiskCalculator_9" transform="translate(0, 0)"><foreignObject width="0" height="0"><div xmlns="http://www.w3.org/1999/xhtml" class="labelBkg" style="display: table-cell; white-space: nowrap; line-height: 1.5; max-width: 200px; text-align: center;"><span class="edgeLabel"></span></div></foreignObject></g></g></g><g class="nodes"><g class="node default" id="my-svg-classId-ScreeningRouter-0" data-look="classic" transform="translate(686.51171875, 95)"><g class="basic label-container outer-path"><path d="M-119.15234375 -87 L119.15234375 -87 L119.15234375 87 L-119.15234375 87" stroke="none" stroke-width="0" fill="#ECECFF" style=""/><path d="M-119.15234375 -87 C-28.482314569361634 -87, 62.18771461127673 -87, 119.15234375 -87 M-119.15234375 -87 C-35.75281281372271 -87, 47.646718122554574 -87, 119.15234375 -87 M119.15234375 -87 C119.15234375 -36.03890266159167, 119.15234375 14.922194676816659, 119.15234375 87 M119.15234375 -87 C119.15234375 -50.14200714383552, 119.15234375 -13.284014287671042, 119.15234375 87 M119.15234375 87 C58.54930480892795 87, -2.0537341321441005 87, -119.15234375 87 M119.15234375 87 C54.226202082382855 87, -10.69993958523429 87, -119.15234375 87 M-119.15234375 87 C-119.15234375 42.088825703095914, -119.15234375 -2.8223485938081723, -119.15234375 -87 M-119.15234375 87 C-119.15234375 33.53390899594765, -119.15234375 -19.932182008104704, -119.15234375 -87" stroke="#9370DB" stroke-width="1.3" fill="none" stroke-dasharray="0 0" style=""/></g><g class="annotation-group text" transform="translate(0, -63)"/><g class="label-group text" transform="translate(-64.4609375, -63)"><g class="label" style="font-weight: bolder" transform="translate(0,-12)"><foreignObject width="128.921875" height="24"><div xmlns="http://www.w3.org/1999/xhtml" style="display: table-cell; white-space: nowrap; line-height: 1.5; max-width: 158px; text-align: center;"><span class="nodeLabel markdown-node-label" style=""><p>ScreeningRouter</p></span></div></foreignObject></g></g><g class="members-group text" transform="translate(-107.15234375, -15)"/><g class="methods-group text" transform="translate(-107.15234375, 15)"><g class="label" style="" transform="translate(0,-12)"><foreignObject width="149.84375" height="24"><div xmlns="http://www.w3.org/1999/xhtml" style="display: table-cell; white-space: nowrap; line-height: 1.5; max-width: 188px; text-align: center;"><span class="nodeLabel markdown-node-label" style=""><p>+submit_responses()</p></span></div></foreignObject></g><g class="label" style="" transform="translate(0,12)"><foreignObject width="121.375" height="24"><div xmlns="http://www.w3.org/1999/xhtml" style="display: table-cell; white-space: nowrap; line-height: 1.5; max-width: 163px; text-align: center;"><span class="nodeLabel markdown-node-label" style=""><p>+session_items()</p></span></div></foreignObject></g><g class="label" style="" transform="translate(0,36)"><foreignObject width="148.09375" height="24"><div xmlns="http://www.w3.org/1999/xhtml" style="display: table-cell; white-space: nowrap; line-height: 1.5; max-width: 185px; text-align: center;"><span class="nodeLabel markdown-node-label" style=""><p>+diagnose_session()</p></span></div></foreignObject></g></g><g class="divider" style=""><path d="M-119.15234375 -39 C-34.80028197314759 -38.99964603272113, 49.55177980370482 -38.999292065442255, 119.15234375 -38.999 M-119.15234375 -39 C-69.16683567660445 -38.9997902453846, -19.1813276032089 -38.99958049076921, 119.15234375 -38.999" stroke="#9370DB" stroke-width="1.3" fill="none" stroke-dasharray="0 0" style=""/></g><g class="divider" style=""><path d="M-119.15234375 -15 C-38.83221182278824 -14.999662951942868, 41.48792010442352 -14.999325903885737, 119.15234375 -14.999 M-119.15234375 -15 C-51.49284390360728 -14.999716079861642, 16.16665594278544 -14.999432159723284, 119.15234375 -14.999" stroke="#9370DB" stroke-width="1.3" fill="none" stroke-dasharray="0 0" style=""/></g></g><g class="node default" id="my-svg-classId-SubmitAnswersUseCase-1" data-look="classic" transform="translate(356.154296875, 295)"><g class="basic label-container outer-path"><path d="M-176.30859375 -63 L176.30859375 -63 L176.30859375 63 L-176.30859375 63" stroke="none" stroke-width="0" fill="#ECECFF" style=""/><path d="M-176.30859375 -63 C-90.46024771311295 -63, -4.611901676225898 -63, 176.30859375 -63 M-176.30859375 -63 C-63.22443323343232 -63, 49.859727283135356 -63, 176.30859375 -63 M176.30859375 -63 C176.30859375 -29.450481974030595, 176.30859375 4.0990360519388105, 176.30859375 63 M176.30859375 -63 C176.30859375 -35.6095754160841, 176.30859375 -8.219150832168204, 176.30859375 63 M176.30859375 63 C51.333942664675504 63, -73.64070842064899 63, -176.30859375 63 M176.30859375 63 C43.55563953121373 63, -89.19731468757254 63, -176.30859375 63 M-176.30859375 63 C-176.30859375 29.927609703993312, -176.30859375 -3.144780592013376, -176.30859375 -63 M-176.30859375 63 C-176.30859375 20.853381909256093, -176.30859375 -21.293236181487813, -176.30859375 -63" stroke="#9370DB" stroke-width="1.3" fill="none" stroke-dasharray="0 0" style=""/></g><g class="annotation-group text" transform="translate(0, -39)"/><g class="label-group text" transform="translate(-94.2578125, -39)"><g class="label" style="font-weight: bolder" transform="translate(0,-12)"><foreignObject width="188.515625" height="24"><div xmlns="http://www.w3.org/1999/xhtml" style="display: table-cell; white-space: nowrap; line-height: 1.5; max-width: 208px; text-align: center;"><span class="nodeLabel markdown-node-label" style=""><p>SubmitAnswersUseCase</p></span></div></foreignObject></g></g><g class="members-group text" transform="translate(-164.30859375, 9)"/><g class="methods-group text" transform="translate(-164.30859375, 39)"><g class="label" style="" transform="translate(0,-12)"><foreignObject width="234.359375" height="24"><div xmlns="http://www.w3.org/1999/xhtml" style="display: table-cell; white-space: nowrap; line-height: 1.5; max-width: 260px; text-align: center;"><span class="nodeLabel markdown-node-label" style=""><p>+execute(session_id, responses)</p></span></div></foreignObject></g></g><g class="divider" style=""><path d="M-176.30859375 -15 C-56.476637669545454 -14.999660164165762, 63.35531841090909 -14.999320328331526, 176.30859375 -14.999 M-176.30859375 -15 C-90.21478527782828 -14.999755843414547, -4.120976805656568 -14.999511686829093, 176.30859375 -14.999" stroke="#9370DB" stroke-width="1.3" fill="none" stroke-dasharray="0 0" style=""/></g><g class="divider" style=""><path d="M-176.30859375 9 C-76.2762118357993 9.00028368549651, 23.756170078401396 9.000567370993021, 176.30859375 9.001 M-176.30859375 9 C-49.557126287209016 9.00035945913006, 77.19434117558197 9.00071891826012, 176.30859375 9.001" stroke="#9370DB" stroke-width="1.3" fill="none" stroke-dasharray="0 0" style=""/></g></g><g class="node default" id="my-svg-classId-GetResultUseCase-2" data-look="classic" transform="translate(1217.625, 295)"><g class="basic label-container outer-path"><path d="M-159.64453125 -63 L159.64453125 -63 L159.64453125 63 L-159.64453125 63" stroke="none" stroke-width="0" fill="#ECECFF" style=""/><path d="M-159.64453125 -63 C-82.8999815220578 -63, -6.1554317941156 -63, 159.64453125 -63 M-159.64453125 -63 C-50.71575864161342 -63, 58.21301396677316 -63, 159.64453125 -63 M159.64453125 -63 C159.64453125 -30.709928031589378, 159.64453125 1.5801439368212442, 159.64453125 63 M159.64453125 -63 C159.64453125 -29.629356632955336, 159.64453125 3.7412867340893285, 159.64453125 63 M159.64453125 63 C66.76875900648635 63, -26.107013237027303 63, -159.64453125 63 M159.64453125 63 C47.40862720365078 63, -64.82727684269844 63, -159.64453125 63 M-159.64453125 63 C-159.64453125 32.499297530067196, -159.64453125 1.9985950601343916, -159.64453125 -63 M-159.64453125 63 C-159.64453125 36.883017797084136, -159.64453125 10.766035594168272, -159.64453125 -63" stroke="#9370DB" stroke-width="1.3" fill="none" stroke-dasharray="0 0" style=""/></g><g class="annotation-group text" transform="translate(0, -39)"/><g class="label-group text" transform="translate(-71.5859375, -39)"><g class="label" style="font-weight: bolder" transform="translate(0,-12)"><foreignObject width="143.171875" height="24"><div xmlns="http://www.w3.org/1999/xhtml" style="display: table-cell; white-space: nowrap; line-height: 1.5; max-width: 170px; text-align: center;"><span class="nodeLabel markdown-node-label" style=""><p>GetResultUseCase</p></span></div></foreignObject></g></g><g class="members-group text" transform="translate(-147.64453125, 9)"/><g class="methods-group text" transform="translate(-147.64453125, 39)"><g class="label" style="" transform="translate(0,-12)"><foreignObject width="223.703125" height="24"><div xmlns="http://www.w3.org/1999/xhtml" style="display: table-cell; white-space: nowrap; line-height: 1.5; max-width: 252px; text-align: center;"><span class="nodeLabel markdown-node-label" style=""><p>+diagnose_session(session_id)</p></span></div></foreignObject></g></g><g class="divider" style=""><path d="M-159.64453125 -15 C-58.93757715666294 -14.999684590028531, 41.76937693667412 -14.999369180057064, 159.64453125 -14.999 M-159.64453125 -15 C-94.1919249396535 -14.999795005172436, -28.739318629307007 -14.999590010344871, 159.64453125 -14.999" stroke="#9370DB" stroke-width="1.3" fill="none" stroke-dasharray="0 0" style=""/></g><g class="divider" style=""><path d="M-159.64453125 9 C-50.0998790650694 9.000343089272546, 59.444773119861196 9.000686178545092, 159.64453125 9.001 M-159.64453125 9 C-86.67721840490249 9.000228530574375, -13.70990555980498 9.00045706114875, 159.64453125 9.001" stroke="#9370DB" stroke-width="1.3" fill="none" stroke-dasharray="0 0" style=""/></g></g><g class="node default" id="my-svg-classId-PgSessionRepository-3" data-look="classic" transform="translate(155.3984375, 495)"><g class="basic label-container outer-path"><path d="M-147.3984375 -87 L147.3984375 -87 L147.3984375 87 L-147.3984375 87" stroke="none" stroke-width="0" fill="#ECECFF" style=""/><path d="M-147.3984375 -87 C-73.45429514912675 -87, 0.48984720174649965 -87, 147.3984375 -87 M-147.3984375 -87 C-82.90101562652806 -87, -18.40359375305613 -87, 147.3984375 -87 M147.3984375 -87 C147.3984375 -32.0043508525168, 147.3984375 22.9912982949664, 147.3984375 87 M147.3984375 -87 C147.3984375 -39.36751251349811, 147.3984375 8.264974973003774, 147.3984375 87 M147.3984375 87 C72.00935617769686 87, -3.379725144606283 87, -147.3984375 87 M147.3984375 87 C42.170045065633616 87, -63.05834736873277 87, -147.3984375 87 M-147.3984375 87 C-147.3984375 19.85408473744316, -147.3984375 -47.29183052511368, -147.3984375 -87 M-147.3984375 87 C-147.3984375 25.382482419543443, -147.3984375 -36.235035160913114, -147.3984375 -87" stroke="#9370DB" stroke-width="1.3" fill="none" stroke-dasharray="0 0" style=""/></g><g class="annotation-group text" transform="translate(0, -63)"/><g class="label-group text" transform="translate(-82.6875, -63)"><g class="label" style="font-weight: bolder" transform="translate(0,-12)"><foreignObject width="165.375" height="24"><div xmlns="http://www.w3.org/1999/xhtml" style="display: table-cell; white-space: nowrap; line-height: 1.5; max-width: 186px; text-align: center;"><span class="nodeLabel markdown-node-label" style=""><p>PgSessionRepository</p></span></div></foreignObject></g></g><g class="members-group text" transform="translate(-135.3984375, -15)"/><g class="methods-group text" transform="translate(-135.3984375, 15)"><g class="label" style="" transform="translate(0,-12)"><foreignObject width="152.515625" height="24"><div xmlns="http://www.w3.org/1999/xhtml" style="display: table-cell; white-space: nowrap; line-height: 1.5; max-width: 191px; text-align: center;"><span class="nodeLabel markdown-node-label" style=""><p>+get_session_items()</p></span></div></foreignObject></g><g class="label" style="" transform="translate(0,12)"><foreignObject width="188.109375" height="24"><div xmlns="http://www.w3.org/1999/xhtml" style="display: table-cell; white-space: nowrap; line-height: 1.5; max-width: 218px; text-align: center;"><span class="nodeLabel markdown-node-label" style=""><p>+get_session_responses()</p></span></div></foreignObject></g><g class="label" style="" transform="translate(0,36)"><foreignObject width="128.515625" height="24"><div xmlns="http://www.w3.org/1999/xhtml" style="display: table-cell; white-space: nowrap; line-height: 1.5; max-width: 167px; text-align: center;"><span class="nodeLabel markdown-node-label" style=""><p>+save_response()</p></span></div></foreignObject></g></g><g class="divider" style=""><path d="M-147.3984375 -39 C-65.54008644203319 -38.99972232286703, 16.31826461593363 -38.999444645734066, 147.3984375 -38.999 M-147.3984375 -39 C-77.4291220954153 -38.99976265245212, -7.45980669083059 -38.99952530490424, 147.3984375 -38.999" stroke="#9370DB" stroke-width="1.3" fill="none" stroke-dasharray="0 0" style=""/></g><g class="divider" style=""><path d="M-147.3984375 -15 C-63.83964456889511 -14.999716554685557, 19.71914836220978 -14.999433109371115, 147.3984375 -14.999 M-147.3984375 -15 C-67.52047433857761 -14.99972904067195, 12.357488822844772 -14.9994580813439, 147.3984375 -14.999" stroke="#9370DB" stroke-width="1.3" fill="none" stroke-dasharray="0 0" style=""/></g></g><g class="node default" id="my-svg-classId-PgResultRepository-4" data-look="classic" transform="translate(941.083984375, 495)"><g class="basic label-container outer-path"><path d="M-127.83984375 -87 L127.83984375 -87 L127.83984375 87 L-127.83984375 87" stroke="none" stroke-width="0" fill="#ECECFF" style=""/><path d="M-127.83984375 -87 C-59.76434734284503 -87, 8.311149064309944 -87, 127.83984375 -87 M-127.83984375 -87 C-54.964919276422734 -87, 17.910005197154533 -87, 127.83984375 -87 M127.83984375 -87 C127.83984375 -40.14699939229218, 127.83984375 6.70600121541564, 127.83984375 87 M127.83984375 -87 C127.83984375 -22.12536845749085, 127.83984375 42.7492630850183, 127.83984375 87 M127.83984375 87 C64.68052014501873 87, 1.521196540037451 87, -127.83984375 87 M127.83984375 87 C55.563806246958805 87, -16.71223125608239 87, -127.83984375 87 M-127.83984375 87 C-127.83984375 43.760650870317214, -127.83984375 0.5213017406344278, -127.83984375 -87 M-127.83984375 87 C-127.83984375 34.25547568692814, -127.83984375 -18.489048626143713, -127.83984375 -87" stroke="#9370DB" stroke-width="1.3" fill="none" stroke-dasharray="0 0" style=""/></g><g class="annotation-group text" transform="translate(0, -63)"/><g class="label-group text" transform="translate(-76.4609375, -63)"><g class="label" style="font-weight: bolder" transform="translate(0,-12)"><foreignObject width="152.921875" height="24"><div xmlns="http://www.w3.org/1999/xhtml" style="display: table-cell; white-space: nowrap; line-height: 1.5; max-width: 178px; text-align: center;"><span class="nodeLabel markdown-node-label" style=""><p>PgResultRepository</p></span></div></foreignObject></g></g><g class="members-group text" transform="translate(-115.83984375, -15)"/><g class="methods-group text" transform="translate(-115.83984375, 15)"><g class="label" style="" transform="translate(0,-12)"><foreignObject width="130.296875" height="24"><div xmlns="http://www.w3.org/1999/xhtml" style="display: table-cell; white-space: nowrap; line-height: 1.5; max-width: 171px; text-align: center;"><span class="nodeLabel markdown-node-label" style=""><p>+save_diagnosis()</p></span></div></foreignObject></g><g class="label" style="" transform="translate(0,12)"><foreignObject width="155.21875" height="24"><div xmlns="http://www.w3.org/1999/xhtml" style="display: table-cell; white-space: nowrap; line-height: 1.5; max-width: 192px; text-align: center;"><span class="nodeLabel markdown-node-label" style=""><p>+save_student_path()</p></span></div></foreignObject></g><g class="label" style="" transform="translate(0,36)"><foreignObject width="123.171875" height="24"><div xmlns="http://www.w3.org/1999/xhtml" style="display: table-cell; white-space: nowrap; line-height: 1.5; max-width: 167px; text-align: center;"><span class="nodeLabel markdown-node-label" style=""><p>+get_latest_risk()</p></span></div></foreignObject></g></g><g class="divider" style=""><path d="M-127.83984375 -39 C-40.162438352533385 -38.9996570810679, 47.51496704493323 -38.999314162135796, 127.83984375 -38.999 M-127.83984375 -39 C-35.71228443764301 -38.99963967587643, 56.41527487471399 -38.99927935175287, 127.83984375 -38.999" stroke="#9370DB" stroke-width="1.3" fill="none" stroke-dasharray="0 0" style=""/></g><g class="divider" style=""><path d="M-127.83984375 -15 C-55.31563529637948 -14.99971634739872, 17.208573157241034 -14.999432694797441, 127.83984375 -14.999 M-127.83984375 -15 C-54.21865971438311 -14.99971205696958, 19.402524321233784 -14.99942411393916, 127.83984375 -14.999" stroke="#9370DB" stroke-width="1.3" fill="none" stroke-dasharray="0 0" style=""/></g></g><g class="node default" id="my-svg-classId-SpacyNlpService-5" data-look="classic" transform="translate(559.130859375, 495)"><g class="basic label-container outer-path"><path d="M-204.11328125 -63 L204.11328125 -63 L204.11328125 63 L-204.11328125 63" stroke="none" stroke-width="0" fill="#ECECFF" style=""/><path d="M-204.11328125 -63 C-61.15071122861886 -63, 81.81185879276228 -63, 204.11328125 -63 M-204.11328125 -63 C-45.40768089683533 -63, 113.29791945632934 -63, 204.11328125 -63 M204.11328125 -63 C204.11328125 -36.87271761266264, 204.11328125 -10.745435225325274, 204.11328125 63 M204.11328125 -63 C204.11328125 -32.55177855765103, 204.11328125 -2.103557115302067, 204.11328125 63 M204.11328125 63 C83.3067984089842 63, -37.499684432031586 63, -204.11328125 63 M204.11328125 63 C64.10417318881653 63, -75.90493487236694 63, -204.11328125 63 M-204.11328125 63 C-204.11328125 13.797672980006226, -204.11328125 -35.40465403998755, -204.11328125 -63 M-204.11328125 63 C-204.11328125 15.078044840366601, -204.11328125 -32.8439103192668, -204.11328125 -63" stroke="#9370DB" stroke-width="1.3" fill="none" stroke-dasharray="0 0" style=""/></g><g class="annotation-group text" transform="translate(0, -39)"/><g class="label-group text" transform="translate(-64.9296875, -39)"><g class="label" style="font-weight: bolder" transform="translate(0,-12)"><foreignObject width="129.859375" height="24"><div xmlns="http://www.w3.org/1999/xhtml" style="display: table-cell; white-space: nowrap; line-height: 1.5; max-width: 161px; text-align: center;"><span class="nodeLabel markdown-node-label" style=""><p>SpacyNlpService</p></span></div></foreignObject></g></g><g class="members-group text" transform="translate(-192.11328125, 9)"/><g class="methods-group text" transform="translate(-192.11328125, 39)"><g class="label" style="" transform="translate(0,-12)"><foreignObject width="319.296875" height="24"><div xmlns="http://www.w3.org/1999/xhtml" style="display: table-cell; white-space: nowrap; line-height: 1.5; max-width: 344px; text-align: center;"><span class="nodeLabel markdown-node-label" style=""><p>+analyze_response() +build_feature_vector()</p></span></div></foreignObject></g></g><g class="divider" style=""><path d="M-204.11328125 -15 C-117.96230834653205 -14.999788962843633, -31.81133544306411 -14.999577925687266, 204.11328125 -14.999 M-204.11328125 -15 C-72.63960272796763 -14.99967793943217, 58.834075794064745 -14.99935587886434, 204.11328125 -14.999" stroke="#9370DB" stroke-width="1.3" fill="none" stroke-dasharray="0 0" style=""/></g><g class="divider" style=""><path d="M-204.11328125 9 C-105.45344038645685 9.00024167913097, -6.793599522913695 9.000483358261938, 204.11328125 9.001 M-204.11328125 9 C-102.05519341896203 9.000250003545105, 0.002894412075931996 9.00050000709021, 204.11328125 9.001" stroke="#9370DB" stroke-width="1.3" fill="none" stroke-dasharray="0 0" style=""/></g></g><g class="node default" id="my-svg-classId-RiskCalculator-6" data-look="classic" transform="translate(1866.458984375, 495)"><g class="basic label-container outer-path"><path d="M-76.23828125 -63 L76.23828125 -63 L76.23828125 63 L-76.23828125 63" stroke="none" stroke-width="0" fill="#ECECFF" style=""/><path d="M-76.23828125 -63 C-43.69611106868086 -63, -11.153940887361713 -63, 76.23828125 -63 M-76.23828125 -63 C-37.28009672663989 -63, 1.6780877967202201 -63, 76.23828125 -63 M76.23828125 -63 C76.23828125 -13.411897664334084, 76.23828125 36.17620467133183, 76.23828125 63 M76.23828125 -63 C76.23828125 -20.411944552821716, 76.23828125 22.17611089435657, 76.23828125 63 M76.23828125 63 C32.085422492214576 63, -12.067436265570848 63, -76.23828125 63 M76.23828125 63 C21.513992608546317 63, -33.210296032907365 63, -76.23828125 63 M-76.23828125 63 C-76.23828125 17.91380626044066, -76.23828125 -27.172387479118683, -76.23828125 -63 M-76.23828125 63 C-76.23828125 33.23192764754512, -76.23828125 3.4638552950902337, -76.23828125 -63" stroke="#9370DB" stroke-width="1.3" fill="none" stroke-dasharray="0 0" style=""/></g><g class="annotation-group text" transform="translate(0, -39)"/><g class="label-group text" transform="translate(-56.0234375, -39)"><g class="label" style="font-weight: bolder" transform="translate(0,-12)"><foreignObject width="112.046875" height="24"><div xmlns="http://www.w3.org/1999/xhtml" style="display: table-cell; white-space: nowrap; line-height: 1.5; max-width: 147px; text-align: center;"><span class="nodeLabel markdown-node-label" style=""><p>RiskCalculator</p></span></div></foreignObject></g></g><g class="members-group text" transform="translate(-64.23828125, 9)"/><g class="methods-group text" transform="translate(-64.23828125, 39)"><g class="label" style="" transform="translate(0,-12)"><foreignObject width="72.453125" height="24"><div xmlns="http://www.w3.org/1999/xhtml" style="display: table-cell; white-space: nowrap; line-height: 1.5; max-width: 123px; text-align: center;"><span class="nodeLabel markdown-node-label" style=""><p>+classify()</p></span></div></foreignObject></g></g><g class="divider" style=""><path d="M-76.23828125 -15 C-35.76891960270265 -14.999734586345706, 4.700442044594695 -14.999469172691413, 76.23828125 -14.999 M-76.23828125 -15 C-45.05994032925332 -14.999795520436653, -13.881599408506645 -14.999591040873305, 76.23828125 -14.999" stroke="#9370DB" stroke-width="1.3" fill="none" stroke-dasharray="0 0" style=""/></g><g class="divider" style=""><path d="M-76.23828125 9 C-27.64268697060585 9.000318708616476, 20.952907308788298 9.000637417232952, 76.23828125 9.001 M-76.23828125 9 C-36.90657509414166 9.000257952471586, 2.4251310617166837 9.000515904943173, 76.23828125 9.001" stroke="#9370DB" stroke-width="1.3" fill="none" stroke-dasharray="0 0" style=""/></g></g><g class="node default" id="my-svg-classId-DiagnosisServiceClient-7" data-look="classic" transform="translate(1219.845703125, 495)"><g class="basic label-container outer-path"><path d="M-100.921875 -63 L100.921875 -63 L100.921875 63 L-100.921875 63" stroke="none" stroke-width="0" fill="#ECECFF" style=""/><path d="M-100.921875 -63 C-47.964641043285624 -63, 4.9925929134287514 -63, 100.921875 -63 M-100.921875 -63 C-30.928745974971477 -63, 39.064383050057046 -63, 100.921875 -63 M100.921875 -63 C100.921875 -23.202387477971868, 100.921875 16.595225044056264, 100.921875 63 M100.921875 -63 C100.921875 -15.737126314507492, 100.921875 31.525747370985016, 100.921875 63 M100.921875 63 C23.938509765122788 63, -53.044855469754424 63, -100.921875 63 M100.921875 63 C38.67776132499385 63, -23.566352350012295 63, -100.921875 63 M-100.921875 63 C-100.921875 21.551777900853168, -100.921875 -19.896444198293665, -100.921875 -63 M-100.921875 63 C-100.921875 30.008925454430745, -100.921875 -2.98214909113851, -100.921875 -63" stroke="#9370DB" stroke-width="1.3" fill="none" stroke-dasharray="0 0" style=""/></g><g class="annotation-group text" transform="translate(0, -39)"/><g class="label-group text" transform="translate(-88.921875, -39)"><g class="label" style="font-weight: bolder" transform="translate(0,-12)"><foreignObject width="177.84375" height="24"><div xmlns="http://www.w3.org/1999/xhtml" style="display: table-cell; white-space: nowrap; line-height: 1.5; max-width: 202px; text-align: center;"><span class="nodeLabel markdown-node-label" style=""><p>DiagnosisServiceClient</p></span></div></foreignObject></g></g><g class="members-group text" transform="translate(-88.921875, 9)"/><g class="methods-group text" transform="translate(-88.921875, 39)"><g class="label" style="" transform="translate(0,-12)"><foreignObject width="84.953125" height="24"><div xmlns="http://www.w3.org/1999/xhtml" style="display: table-cell; white-space: nowrap; line-height: 1.5; max-width: 131px; text-align: center;"><span class="nodeLabel markdown-node-label" style=""><p>+diagnose()</p></span></div></foreignObject></g></g><g class="divider" style=""><path d="M-100.921875 -15 C-47.257884988101054 -14.999734131029513, 6.406105023797892 -14.999468262059025, 100.921875 -14.999 M-100.921875 -15 C-54.37518164163168 -14.999769392446591, -7.828488283263354 -14.999538784893183, 100.921875 -14.999" stroke="#9370DB" stroke-width="1.3" fill="none" stroke-dasharray="0 0" style=""/></g><g class="divider" style=""><path d="M-100.921875 9 C-57.477847775824074 9.000215235929891, -14.033820551648148 9.000430471859785, 100.921875 9.001 M-100.921875 9 C-22.148219305825265 9.000390270472552, 56.62543638834947 9.000780540945104, 100.921875 9.001" stroke="#9370DB" stroke-width="1.3" fill="none" stroke-dasharray="0 0" style=""/></g></g><g class="node default" id="my-svg-classId-RecommendationServiceClient-8" data-look="classic" transform="translate(1555.494140625, 495)"><g class="basic label-container outer-path"><path d="M-184.7265625 -63 L184.7265625 -63 L184.7265625 63 L-184.7265625 63" stroke="none" stroke-width="0" fill="#ECECFF" style=""/><path d="M-184.7265625 -63 C-93.39562427193425 -63, -2.0646860438685053 -63, 184.7265625 -63 M-184.7265625 -63 C-90.12726532649774 -63, 4.47203184700453 -63, 184.7265625 -63 M184.7265625 -63 C184.7265625 -26.47905933407825, 184.7265625 10.041881331843499, 184.7265625 63 M184.7265625 -63 C184.7265625 -19.87358284067654, 184.7265625 23.25283431864692, 184.7265625 63 M184.7265625 63 C100.82004707481751 63, 16.91353164963502 63, -184.7265625 63 M184.7265625 63 C54.93750771754188 63, -74.85154706491625 63, -184.7265625 63 M-184.7265625 63 C-184.7265625 23.67242742760768, -184.7265625 -15.65514514478464, -184.7265625 -63 M-184.7265625 63 C-184.7265625 34.6831480546019, -184.7265625 6.366296109203802, -184.7265625 -63" stroke="#9370DB" stroke-width="1.3" fill="none" stroke-dasharray="0 0" style=""/></g><g class="annotation-group text" transform="translate(0, -39)"/><g class="label-group text" transform="translate(-117.8125, -39)"><g class="label" style="font-weight: bolder" transform="translate(0,-12)"><foreignObject width="235.625" height="24"><div xmlns="http://www.w3.org/1999/xhtml" style="display: table-cell; white-space: nowrap; line-height: 1.5; max-width: 251px; text-align: center;"><span class="nodeLabel markdown-node-label" style=""><p>RecommendationServiceClient</p></span></div></foreignObject></g></g><g class="members-group text" transform="translate(-172.7265625, 9)"/><g class="methods-group text" transform="translate(-172.7265625, 39)"><g class="label" style="" transform="translate(0,-12)"><foreignObject width="227.640625" height="24"><div xmlns="http://www.w3.org/1999/xhtml" style="display: table-cell; white-space: nowrap; line-height: 1.5; max-width: 261px; text-align: center;"><span class="nodeLabel markdown-node-label" style=""><p>+recommend() +next_exercise()</p></span></div></foreignObject></g></g><g class="divider" style=""><path d="M-184.7265625 -15 C-96.71403269338181 -14.999761776193376, -8.70150288676362 -14.999523552386753, 184.7265625 -14.999 M-184.7265625 -15 C-37.14423478586244 -14.999600538423612, 110.43809292827513 -14.999201076847223, 184.7265625 -14.999" stroke="#9370DB" stroke-width="1.3" fill="none" stroke-dasharray="0 0" style=""/></g><g class="divider" style=""><path d="M-184.7265625 9 C-110.69333399308113 9.000200385985385, -36.66010548616225 9.00040077197077, 184.7265625 9.001 M-184.7265625 9 C-56.25530977502456 9.000347733566267, 72.21594294995089 9.000695467132536, 184.7265625 9.001" stroke="#9370DB" stroke-width="1.3" fill="none" stroke-dasharray="0 0" style=""/></g></g></g></g></g><defs><filter id="my-svg-drop-shadow" height="130%" width="130%"><feDropShadow dx="4" dy="4" stdDeviation="0" flood-opacity="0.06" flood-color="#000000"/></filter></defs><defs><filter id="my-svg-drop-shadow-small" height="150%" width="150%"><feDropShadow dx="2" dy="2" stdDeviation="0" flood-opacity="0.06" flood-color="#000000"/></filter></defs></svg>